HIERARCHY
ROOT Hips
{
	OFFSET 0.000000 0.000000 0.000000
	CHANNELS 6 Xposition Yposition Zposition Xrotation Yrotation Zrotation
	JOINT LeftUpLeg_virtual
	{
		OFFSET 0.000000 0.000000 0.000000
		CHANNELS 3 Xrotation Yrotation Zrotation
		JOINT LeftUpLeg
		{
			OFFSET 10.205400 -3.823500 0.155100
			CHANNELS 3 Xrotation Yrotation Zrotation
			JOINT LeftLeg
			{
				OFFSET 0.708757 -12.982077 0.567790
				CHANNELS 3 Xrotation Yrotation Zrotation
				JOINT LeftFoot
				{
					OFFSET -0.708756 -10.717838 -2.184338
					CHANNELS 3 Xrotation Yrotation Zrotation
					JOINT LeftToeBase
					{
						OFFSET 0.108149 -7.191104 7.560241
						CHANNELS 3 Xrotation Yrotation Zrotation
						JOINT LeftToe_End
						{
							OFFSET 0.070230 0.081724 4.490308
							CHANNELS 3 Xrotation Yrotation Zrotation
							End Site
							{
								OFFSET 0 0 0
							}
						}
					}
				}
			}
		}
	}
	JOINT RightUpLeg_virtual
	{
		OFFSET 0.000000 0.000000 0.000000
		CHANNELS 3 Xrotation Yrotation Zrotation
		JOINT RightUpLeg
		{
			OFFSET -10.205400 -3.823500 0.005500
			CHANNELS 3 Xrotation Yrotation Zrotation
			JOINT RightLeg
			{
				OFFSET -0.708756 -12.982134 0.610632
				CHANNELS 3 Xrotation Yrotation Zrotation
				JOINT RightFoot
				{
					OFFSET 0.708754 -10.717769 -1.945823
					CHANNELS 3 Xrotation Yrotation Zrotation
					JOINT RightToeBase
					{
						OFFSET -0.108140 -7.191069 7.372968
						CHANNELS 3 Xrotation Yrotation Zrotation
						JOINT RightToe_End
						{
							OFFSET -0.070227 0.081735 4.479403
							CHANNELS 3 Xrotation Yrotation Zrotation
							End Site
							{
								OFFSET 0 0 0
							}
						}
					}
				}
			}
		}
	}
	JOINT Spine_virtual
	{
		OFFSET 0.000000 0.000000 0.000000
		CHANNELS 3 Xrotation Yrotation Zrotation
		JOINT Spine
		{
			OFFSET 0.000000 6.876099 0.125700
			CHANNELS 3 Xrotation Yrotation Zrotation
			JOINT Spine1
			{
				OFFSET 0.000000 5.730043 0.104720
				CHANNELS 3 Xrotation Yrotation Zrotation
				JOINT Spine1_split
				{
					OFFSET 0.000000 5.730043 0.104720
					CHANNELS 3 Xrotation Yrotation Zrotation
					JOINT Spine2
					{
						OFFSET 0.000000 5.730043 0.104720
						CHANNELS 3 Xrotation Yrotation Zrotation
						JOINT Neck_virtual
						{
							OFFSET 0.000000 0.000000 0.000000
							CHANNELS 3 Xrotation Yrotation Zrotation
							JOINT Neck
							{
								OFFSET 0.000000 10.314075 0.188496
								CHANNELS 3 Xrotation Yrotation Zrotation
								JOINT Head
								{
									OFFSET 0.000000 7.643700 -2.377400
									CHANNELS 3 Xrotation Yrotation Zrotation
									JOINT HeadTop_End
									{
										OFFSET 0.000000 43.788605 -13.619600
										CHANNELS 3 Xrotation Yrotation Zrotation
										End Site
										{
											OFFSET 0 0 0
										}
									}
								}
							}
						}
						JOINT LeftShoulder_virtual
						{
							OFFSET 0.000000 0.000000 0.000000
							CHANNELS 3 Xrotation Yrotation Zrotation
							JOINT LeftShoulder
							{
								OFFSET 2.196100 4.412489 0.087492
								CHANNELS 3 Xrotation Yrotation Zrotation
								JOINT LeftShoulder_split
								{
									OFFSET 2.196100 4.412489 0.087492
									CHANNELS 3 Xrotation Yrotation Zrotation
									JOINT LeftArm
									{
										OFFSET 8.771219 -2.981674 -0.026999
										CHANNELS 3 Xrotation Yrotation Zrotation
										JOINT LeftForeArm
										{
											OFFSET 8.512804 0.000000 -0.000000
											CHANNELS 3 Xrotation Yrotation Zrotation
											JOINT LeftHand
											{
												OFFSET 18.484802 0.000000 -0.000000
												CHANNELS 3 Xrotation Yrotation Zrotation
												End Site
												{
													OFFSET 0 0 0
												}
											}
										}
									}
								}
							}
						}
						JOINT RightShoulder_virtual
						{
							OFFSET 0.000000 0.000000 0.000000
							CHANNELS 3 Xrotation Yrotation Zrotation
							JOINT RightShoulder
							{
								OFFSET -2.196100 4.412496 0.070690
								CHANNELS 3 Xrotation Yrotation Zrotation
								JOINT RightShoulder_split
								{
									OFFSET -2.196100 4.412496 0.070690
									CHANNELS 3 Xrotation Yrotation Zrotation
									JOINT RightArm
									{
										OFFSET -8.771282 -2.981682 -0.094208
										CHANNELS 3 Xrotation Yrotation Zrotation
										JOINT RightForeArm
										{
											OFFSET -8.494598 0.000000 0.000000
											CHANNELS 3 Xrotation Yrotation Zrotation
											JOINT RightHand
											{
												OFFSET -18.483803 0.000000 0.000001
												CHANNELS 3 Xrotation Yrotation Zrotation
												End Site
												{
													OFFSET 0 0 0
												}
											}
										}
									}
								}
							}
						}
					}
				}
			}
		}
	}
}
MOTION
Frames: 11
Frame Time: 0.03333333
0.676033 26.791990 0.525051 0.000000 0.000000 0.000000 6.539916 -4.499041 -18.647094 -75.492633 23.293259 21.473637 96.003124 -5.389314 3.736999 25.631719 4.974378 28.529920 -34.436813 -5.176171 1.551026 0.000000 0.000000 0.000000 4.608321 -3.087348 -19.080139 -18.713185 4.005730 -6.270424 56.182489 16.908268 -0.836897 0.982734 16.800959 -0.557209 -35.075979 8.594237 -2.740895 0.000000 0.000000 0.000000 0.404695 1.727416 -17.600371 7.825343 5.727173 1.982842 1.162007 2.336240 1.678615 1.252319 1.494350 1.127958 0.000000 0.000000 0.000000 1.799003 1.383822 2.746683 -6.708681 3.251757 -3.468461 -14.646670 7.270845 2.684315 0.000000 0.000000 0.000000 1.684665 1.735983 1.488597 -1.307612 -4.964059 -4.531539 -1.251902 -0.803530 -1.091436 62.306174 -17.774749 -43.591364 10.404677 -76.297325 10.341036 0.000000 0.000000 0.000000 2.639960 2.129925 2.296445 2.686276 -7.109991 6.719728 7.855803 4.721353 -5.714823 -15.855873 20.530777 55.312528 9.809383 78.395217 -9.273214 0.000000 0.000000 0.000000 
0.694767 27.303017 5.950437 0.000000 0.000000 0.000000 4.057741 -7.218057 -18.986768 -77.318773 22.413213 20.456680 77.757974 -2.400604 0.862909 22.542368 6.409040 27.282713 -27.755527 -3.329629 -1.311331 0.000000 0.000000 0.000000 4.432853 -7.563173 -19.458902 -12.444893 2.834541 -7.303976 55.993686 16.933859 -0.730895 6.090872 16.772325 0.609483 -35.535237 8.511099 -2.773221 0.000000 0.000000 0.000000 1.270690 -1.331190 -18.406538 5.962914 7.068802 2.197000 0.963130 2.809539 1.377393 0.708782 4.379147 0.455725 0.000000 0.000000 0.000000 1.707598 1.838162 2.622967 -5.932731 2.640857 -3.283793 -15.427553 7.774462 3.461020 0.000000 0.000000 0.000000 1.351760 2.361701 1.587516 -1.132441 -2.693972 -3.484602 -1.050387 1.009311 -1.266519 64.963726 -15.250732 -42.535789 9.259010 -79.401933 8.544768 0.000000 0.000000 0.000000 1.631585 2.464853 1.940882 1.891199 -5.558334 5.674411 6.741591 5.590360 -6.096110 -23.192693 25.899934 59.165557 85.039946 88.668368 -85.477202 0.000000 0.000000 0.000000 
1.125412 27.774040 12.703746 0.000000 0.000000 0.000000 2.582970 -8.976656 -18.623892 -75.539659 17.758745 14.599603 58.658573 0.784489 -0.395636 20.362145 9.023887 24.985240 -13.260858 -1.631439 -6.200619 0.000000 0.000000 0.000000 4.838471 -8.488797 -19.035015 -4.338215 2.698564 -8.733991 57.274083 17.532648 -2.053550 13.604651 17.337558 5.685838 -40.876189 7.488630 -0.906648 0.000000 0.000000 0.000000 2.191897 -3.118564 -18.314276 4.430081 9.652505 2.251300 0.898229 3.861473 1.095447 0.453772 4.725933 0.142968 0.000000 0.000000 0.000000 1.433987 2.825625 2.262724 -4.831008 1.682175 -2.230816 -15.609906 8.963973 3.851741 0.000000 0.000000 0.000000 0.950108 3.588985 1.510705 -1.119463 0.138988 -2.509659 -1.025416 1.249149 -0.655407 66.867190 -12.869627 -43.765069 8.409213 -83.371495 7.042821 0.000000 0.000000 0.000000 1.059834 3.483585 1.433288 1.207076 -3.621007 4.698483 6.588263 4.049518 -5.617644 -28.755978 31.773784 62.754228 175.264102 78.875421 -176.612395 0.000000 0.000000 0.000000 
1.969015 27.699432 20.009258 0.000000 0.000000 0.000000 1.692476 -8.200333 -17.812264 -71.523118 10.489239 5.847068 46.159993 2.341424 0.142405 19.196694 11.484768 22.875152 -1.609392 -1.305469 -9.305271 0.000000 0.000000 0.000000 5.830804 -5.637770 -18.092377 2.401844 3.434729 -10.304302 60.960128 17.673162 -4.448644 19.338373 16.834009 10.016566 -44.916724 5.478501 2.028853 0.000000 0.000000 0.000000 2.019860 -2.281071 -17.721068 3.898679 12.538062 1.970135 1.087551 4.969474 0.953557 0.951260 3.316793 0.430542 0.000000 0.000000 0.000000 0.991679 3.818549 1.837434 -3.744129 1.028328 -0.622205 -15.137869 10.809853 3.809448 0.000000 0.000000 0.000000 0.700777 4.785405 1.323960 -1.177394 2.494162 -2.017919 -0.278073 0.619146 -0.116698 65.955961 -11.762183 -46.647767 7.060769 -86.349874 5.479545 0.000000 0.000000 0.000000 1.005862 4.585815 0.908006 0.622821 -1.918743 4.265831 7.437995 1.673907 -4.003206 -28.165742 35.713816 63.937155 177.487342 71.239037 -179.426870 0.000000 0.000000 0.000000 
3.146933 27.010654 27.387506 0.000000 0.000000 0.000000 1.065232 -4.415215 -16.626607 -66.718606 4.233570 -2.720146 40.985605 2.556024 1.113550 13.914156 12.065865 23.830600 0.494709 -1.028348 -8.634317 0.000000 0.000000 0.000000 7.278548 -0.038181 -17.205158 4.782399 5.009109 -10.993279 67.849317 15.145931 -6.509548 19.672825 12.351326 9.060816 -41.466942 3.260039 5.333503 0.000000 0.000000 0.000000 1.332017 1.734920 -16.738475 4.444317 14.424315 1.397256 1.556432 5.607785 0.878637 0.500926 2.250186 0.708800 0.000000 0.000000 0.000000 0.537584 4.245300 1.461500 -2.915671 0.917681 0.875304 -14.107197 13.011629 3.441399 0.000000 0.000000 0.000000 0.677031 5.291329 1.016580 -1.225348 3.657149 -2.162393 1.190256 0.135417 -0.149522 60.937636 -12.255462 -49.875725 7.467039 -86.282795 6.221048 0.000000 0.000000 0.000000 1.337403 5.122969 0.504195 0.177883 -0.826268 4.595417 8.462892 0.610328 -1.872805 -19.529756 36.075365 61.960901 177.433206 68.774131 -179.459286 0.000000 0.000000 0.000000 
4.583712 25.906382 34.665665 0.000000 0.000000 0.000000 0.420506 0.733289 -15.442284 -58.865371 2.231331 -9.470957 42.672017 3.167624 1.461434 0.585253 9.723442 29.699722 -4.819128 -0.586079 -6.528777 0.000000 0.000000 0.000000 8.126166 7.582566 -17.092463 -0.184932 7.420132 -10.366935 77.663363 9.931279 -7.108551 13.797400 4.276715 2.774603 -30.107590 1.840287 8.672894 0.000000 0.000000 0.000000 -0.035231 7.765369 -15.135745 5.445160 14.294874 0.519373 2.132219 5.262945 0.775134 0.042269 1.327377 -0.072559 0.000000 0.000000 0.000000 0.153247 3.758207 1.147972 -2.423934 1.464734 1.712744 -12.540175 15.795132 3.039669 0.000000 0.000000 0.000000 0.969344 4.725788 0.640916 -1.186227 3.541598 -2.754927 2.236933 -0.843203 -1.483312 51.003819 -13.874720 -52.606383 6.883680 -82.629696 6.671499 0.000000 0.000000 0.000000 1.850517 4.655661 0.306073 -0.088473 -0.850909 5.495433 8.221502 0.593858 0.261676 -4.638916 31.891420 58.789255 176.436313 71.048447 -178.003049 0.000000 0.000000 0.000000 
5.923735 24.874397 41.848999 0.000000 0.000000 0.000000 -0.541634 6.339285 -14.279285 -48.787782 3.506399 -15.149862 49.944713 4.453025 1.492387 -16.830450 4.628659 35.446141 -10.489367 -0.199246 -4.776307 0.000000 0.000000 0.000000 8.601508 16.594976 -17.250686 -12.257387 10.109435 -8.768813 87.328401 4.597811 -5.976751 4.516323 -3.036788 -4.766913 -17.022809 1.417928 10.684753 0.000000 0.000000 0.000000 -1.704603 14.521459 -13.729110 6.296583 11.867401 -0.318161 2.630887 3.846164 0.653389 0.137026 0.811418 -0.869517 0.000000 0.000000 0.000000 -0.083808 2.288203 0.928624 -1.940003 2.571738 1.801355 -10.787922 19.488372 2.848470 0.000000 0.000000 0.000000 1.517960 3.079007 0.347116 -1.072157 2.549165 -3.526661 2.592289 -1.529701 -3.974858 36.765822 -16.306151 -54.067371 5.239136 -77.413747 6.490482 0.000000 0.000000 0.000000 2.201385 3.098043 0.241303 -0.381527 -1.892448 6.252136 6.191224 1.018689 1.878128 11.685145 23.695161 57.280784 174.123624 75.876899 -175.117294 0.000000 0.000000 0.000000 
7.298895 24.491779 48.805672 0.000000 0.000000 0.000000 -0.792171 11.876919 -13.338207 -36.877141 5.986505 -19.940539 59.006038 5.670371 0.923359 -32.250244 -0.667633 37.993228 -13.550402 -0.027680 -2.835829 0.000000 0.000000 0.000000 8.403076 24.473348 -17.205619 -29.593813 12.918540 -5.842116 92.038814 1.250553 -5.008062 -2.573390 -6.857846 -8.756862 -7.780820 1.221890 10.646732 0.000000 0.000000 0.000000 -1.720747 20.207115 -12.928271 6.368592 7.297714 -0.667515 2.913861 1.672025 0.500188 0.007863 0.716464 -0.994333 0.000000 0.000000 0.000000 -0.118795 0.095888 0.774958 -1.080520 3.851132 1.267939 -9.186597 23.413057 2.956072 0.000000 0.000000 0.000000 2.079630 0.728968 0.259114 -0.960260 1.371700 -4.109962 1.837841 -1.256166 -6.788171 20.478225 -18.719679 -53.711112 3.581866 -74.391982 6.226241 0.000000 0.000000 0.000000 2.334088 0.795555 0.257031 -0.687505 -3.835997 5.961889 3.415828 2.037193 2.463124 26.189705 14.243050 57.480468 171.498059 79.089991 -171.956105 0.000000 0.000000 0.000000 
8.804299 24.863102 55.611366 0.000000 0.000000 0.000000 0.303752 17.595711 -13.051890 -24.064435 8.258064 -23.103752 64.628855 6.631236 -0.670295 -41.284150 -4.075509 39.006783 -16.164329 -0.546247 0.091884 0.000000 0.000000 0.000000 7.422344 29.492887 -16.392261 -47.646519 15.287989 -2.162424 88.804480 0.459204 -5.411019 -4.352477 -7.286612 -6.897119 -2.017278 1.006369 8.907225 0.000000 0.000000 0.000000 -0.008156 23.815259 -12.852165 5.400977 1.483126 -0.663042 2.923621 -0.790486 0.422689 0.799197 0.626072 -1.107956 0.000000 0.000000 0.000000 0.011833 -2.265857 0.710695 0.203910 4.979876 0.436745 -8.168155 27.162185 3.433786 0.000000 0.000000 0.000000 2.384576 -1.770652 0.513224 -0.893088 0.474514 -4.226190 0.571885 0.415727 -8.734541 5.474561 -20.353790 -51.266041 1.992166 -77.468784 5.535523 0.000000 0.000000 0.000000 2.256516 -1.749085 0.324300 -0.923140 -6.265199 4.433443 1.332584 3.623299 1.883179 37.766035 5.684955 58.278002 172.782749 77.876956 -172.858373 0.000000 0.000000 0.000000 
10.512533 25.784237 61.866058 0.000000 0.000000 0.000000 2.620763 22.882481 -13.234383 -13.483645 9.077485 -23.736905 65.236175 6.665296 -2.274700 -40.348410 -4.258664 39.008867 -20.881572 -1.931725 3.790008 0.000000 0.000000 0.000000 6.157209 31.298683 -14.889746 -61.234770 16.952125 1.516824 77.546874 2.243581 -6.506577 -1.740382 -4.872079 -0.581337 1.781807 0.695233 6.251505 0.000000 0.000000 0.000000 3.341937 25.474640 -13.513730 3.648729 -4.284422 -0.755003 2.708715 -3.027517 0.461992 2.139872 0.801018 -0.834511 0.000000 0.000000 0.000000 0.346565 -4.342975 0.751465 1.625938 5.565572 -0.137817 -8.007076 30.697056 4.123691 0.000000 0.000000 0.000000 2.278713 -3.931462 1.013817 -0.876350 0.045466 -4.079073 -0.736728 3.025907 -8.454152 -5.918977 -20.403290 -47.227831 -3.055166 -86.997233 0.500946 0.000000 0.000000 0.000000 1.981004 -4.099123 0.441380 -1.022618 -8.548994 2.206231 0.304948 5.260349 0.333354 46.435123 -0.829699 58.177017 175.814397 72.872285 -175.709922 0.000000 0.000000 0.000000 
12.532769 26.824692 67.764870 0.000000 0.000000 0.000000 5.031028 27.129020 -13.931609 -7.107531 8.500863 -21.744599 63.110989 4.927061 -3.690950 -28.050897 -0.887559 36.725931 -27.336149 -3.660378 6.046883 0.000000 0.000000 0.000000 5.031335 30.294655 -13.452868 -67.942357 17.946966 4.285107 62.180663 5.855269 -6.992266 3.979982 -0.488912 7.406097 3.724478 0.325507 3.666572 0.000000 0.000000 0.000000 6.908849 25.629667 -14.118083 1.560870 -8.905781 -1.169043 2.422234 -4.662793 0.558792 2.222181 0.418530 0.110007 0.000000 0.000000 0.000000 0.888416 -5.807281 0.938133 2.536966 5.501817 -0.316325 -8.558343 33.612245 4.832198 0.000000 0.000000 0.000000 1.802534 -5.393267 1.556558 -0.908972 -0.025026 -4.108977 -0.854450 5.632761 -5.745460 -12.267173 -18.794092 -42.687200 -176.442624 -80.818487 -173.864255 0.000000 0.000000 0.000000 1.619177 -5.839860 0.685541 -0.774816 -10.134052 0.542807 0.388105 6.604953 -2.003962 52.152336 -4.312542 57.034914 177.590847 67.382958 -177.564032 0.000000 0.000000 0.000000 
